REM DIRINDEX 1\2,1\3,1\4,1\5
REM DIRNAME "folder01","folder02","folder03","folder04","folder05"
TITLE ""
FILE "1Q_t_1459-1468.mp3" MP3
  TRACK 01 AUDIO
    TITLE "0:"
    INDEX 01 00:00:00
  TRACK 02 AUDIO
    TITLE "3:cjc172_5357"
    INDEX 01 00:00:10
  TRACK 03 AUDIO
    TITLE "0:"
    INDEX 01 00:01:23
  TRACK 04 AUDIO
    TITLE "4:cjc172_5358"
    INDEX 01 00:01:33
  TRACK 05 AUDIO
    TITLE "0:"
    INDEX 01 00:03:40
  TRACK 06 AUDIO
    TITLE "5:cjc172_5359"
    INDEX 01 00:03:48
  TRACK 07 AUDIO
    TITLE "0:"
    INDEX 01 00:08:55
  TRACK 08 AUDIO
    TITLE "3:cjc172_5360"
    INDEX 01 00:09:23
  TRACK 09 AUDIO
    TITLE "0:"
    INDEX 01 00:10:34
  TRACK 10 AUDIO
    TITLE "4:cjc172_5361"
    INDEX 01 00:10:40
  TRACK 11 AUDIO
    TITLE "0:"
    INDEX 01 00:12:51
  TRACK 12 AUDIO
    TITLE "5:cjc172_5362"
    INDEX 01 00:12:57
  TRACK 13 AUDIO
    TITLE "0:"
    INDEX 01 00:17:28
  TRACK 14 AUDIO
    TITLE "3:cjc172_5363"
    INDEX 01 00:17:73
  TRACK 15 AUDIO
    TITLE "0:"
    INDEX 01 00:19:12
  TRACK 16 AUDIO
    TITLE "4:cjc172_5364"
    INDEX 01 00:19:19
  TRACK 17 AUDIO
    TITLE "0:"
    INDEX 01 00:20:48
  TRACK 18 AUDIO
    TITLE "5:cjc172_5365"
    INDEX 01 00:20:54
  TRACK 19 AUDIO
    TITLE "0:"
    INDEX 01 00:26:02
  TRACK 20 AUDIO
    TITLE "3:cjc172_5366"
    INDEX 01 00:26:45
  TRACK 21 AUDIO
    TITLE "0:"
    INDEX 01 00:27:60
  TRACK 22 AUDIO
    TITLE "4:cjc172_5367"
    INDEX 01 00:27:68
  TRACK 23 AUDIO
    TITLE "0:"
    INDEX 01 00:29:34
  TRACK 24 AUDIO
    TITLE "5:cjc172_5368"
    INDEX 01 00:29:37
  TRACK 25 AUDIO
    TITLE "0:"
    INDEX 01 00:33:57
  TRACK 26 AUDIO
    TITLE "3:cjc172_5369"
    INDEX 01 00:34:27
  TRACK 27 AUDIO
    TITLE "0:"
    INDEX 01 00:35:22
  TRACK 28 AUDIO
    TITLE "4:cjc172_5370"
    INDEX 01 00:35:30
  TRACK 29 AUDIO
    TITLE "0:"
    INDEX 01 00:38:32
  TRACK 30 AUDIO
    TITLE "5:cjc172_5371"
    INDEX 01 00:38:38
  TRACK 31 AUDIO
    TITLE "0:"
    INDEX 01 00:43:00
  TRACK 32 AUDIO
    TITLE "3:cjc172_5372"
    INDEX 01 00:43:47
  TRACK 33 AUDIO
    TITLE "0:"
    INDEX 01 00:44:51
  TRACK 34 AUDIO
    TITLE "4:cjc172_5373"
    INDEX 01 00:44:60
  TRACK 35 AUDIO
    TITLE "0:"
    INDEX 01 00:46:10
  TRACK 36 AUDIO
    TITLE "5:cjc172_5374"
    INDEX 01 00:46:16
  TRACK 37 AUDIO
    TITLE "0:"
    INDEX 01 00:51:74
  TRACK 38 AUDIO
    TITLE "3:cjc172_5375"
    INDEX 01 00:52:44
  TRACK 39 AUDIO
    TITLE "0:"
    INDEX 01 00:53:67
  TRACK 40 AUDIO
    TITLE "4:cjc172_5376"
    INDEX 01 00:54:00
  TRACK 41 AUDIO
    TITLE "0:"
    INDEX 01 00:56:03
  TRACK 42 AUDIO
    TITLE "5:cjc172_5377"
    INDEX 01 00:56:11
  TRACK 43 AUDIO
    TITLE "0:"
    INDEX 01 01:00:63
  TRACK 44 AUDIO
    TITLE "3:cjc172_5378"
    INDEX 01 01:01:33
  TRACK 45 AUDIO
    TITLE "0:"
    INDEX 01 01:02:47
  TRACK 46 AUDIO
    TITLE "4:cjc172_5379"
    INDEX 01 01:02:54
  TRACK 47 AUDIO
    TITLE "0:"
    INDEX 01 01:03:60
  TRACK 48 AUDIO
    TITLE "5:cjc172_5380"
    INDEX 01 01:03:68
  TRACK 49 AUDIO
    TITLE "0:"
    INDEX 01 01:07:65
  TRACK 50 AUDIO
    TITLE "3:cjc172_5381"
    INDEX 01 01:08:36
  TRACK 51 AUDIO
    TITLE "0:"
    INDEX 01 01:09:57
  TRACK 52 AUDIO
    TITLE "4:cjc172_5382"
    INDEX 01 01:09:62
  TRACK 53 AUDIO
    TITLE "0:"
    INDEX 01 01:11:69
  TRACK 54 AUDIO
    TITLE "5:cjc172_5383"
    INDEX 01 01:12:00
  TRACK 55 AUDIO
    TITLE "0:"
    INDEX 01 01:16:10
  TRACK 56 AUDIO
    TITLE "3:cjc172_5384"
    INDEX 01 01:16:55
  TRACK 57 AUDIO
    TITLE "0:"
    INDEX 01 01:18:03
  TRACK 58 AUDIO
    TITLE "4:cjc172_5385"
    INDEX 01 01:18:12
  TRACK 59 AUDIO
    TITLE "0:"
    INDEX 01 01:21:46
  TRACK 60 AUDIO
    TITLE "5:cjc172_5386"
    INDEX 01 01:21:54
  TRACK 61 AUDIO
    TITLE "0:"
    INDEX 01 01:27:58
